
<svg xmlns="http://www.w3.org/2000/svg" viewBox="0 0 512 512">
  <!-- Version SVG simplifiée basée sur l'image fournie -->
  <path fill="#1EAEDB" d="M400 150c-20-20-40-30-60-40 0 60-80 80-120 20-10 0-30 10-40 20-10 0-20 10-30 30-10 10-10 30-10 40v110c0 20 10 30 20 40 10 10 20 10 40 10h200c20 0 30-10 40-20 10-10 10-20 10-40V200c0-20-10-30-20-40-10-10-20-10-30-10z"/>
  <path fill="white" d="M310 380H100c-20 0-40-10-50-20-10-10-20-30-20-50V200c0-20 10-40 20-50 10-10 30-20 50-20h40c10 0 20 10 30 10 10 10 10 20 10 30v10c0 10-10 20-10 30-10 10-20 10-30 10h-10c-10 0-20 10-20 20v60c0 10 10 20 20 20h200c10 0 20-10 20-20v-60c0-10-10-20-20-20 20-30 60-40 90-20 10 10 20 20 20 40v110c0 20-10 40-20 50-10 10-30 20-50 20z"/>
  <circle fill="#1EAEDB" cx="220" cy="240" r="50"/>
  <circle fill="white" cx="220" cy="240" r="30"/>
  <circle fill="white" cx="200" cy="220" r="10"/>
</svg>
